PathFileType	4	(X/Y/Z)	RBDS05\RBDS05runT35.trc
DataRate	CameraRate	NumFrames	NumMarkers	Units	OrigDataRate	OrigDataStartFrame	OrigNumFrames
150.000000	150.000000	4	33	mm	150.000000	3937	4500
Frame#	Time	L.ASIS			L.Heel.Bottom			L.Heel.Lateral			L.Heel.Top			L.Iliac.Crest			L.MT1			L.MT5			L.PSIS			L.Shank.Bottom.Lateral			L.Shank.Bottom.Medial			L.Shank.Top.Lateral			L.Shank.Top.Medial			L.Thigh.Bottom.Lateral			L.Thigh.Bottom.Medial			L.Thigh.Top.Lateral			L.Thigh.Top.Medial			R.ASIS			R.ASY			R.Heel.Bottom			R.Heel.Lateral			R.Heel.Top			R.Iliac.Crest			R.MT1			R.MT5			R.PSIS			R.Shank.Bottom.Lateral			R.Shank.Bottom.Medial			R.Shank.Top.Lateral			R.Shank.Top.Medial			R.Thigh.Bottom.Lateral			R.Thigh.Bottom.Medial			R.Thigh.Top.Lateral			R.Thigh.Top.Medial			
		X1	Y1	Z1	X2	Y2	Z2	X3	Y3	Z3	X4	Y4	Z4	X5	Y5	Z5	X6	Y6	Z6	X7	Y7	Z7	X8	Y8	Z8	X9	Y9	Z9	X10	Y10	Z10	X11	Y11	Z11	X12	Y12	Z12	X13	Y13	Z13	X14	Y14	Z14	X15	Y15	Z15	X16	Y16	Z16	X17	Y17	Z17	X18	Y18	Z18	X19	Y19	Z19	X20	Y20	Z20	X21	Y21	Z21	X22	Y22	Z22	X23	Y23	Z23	X24	Y24	Z24	X25	Y25	Z25	X26	Y26	Z26	X27	Y27	Z27	X28	Y28	Z28	X29	Y29	Z29	X30	Y30	Z30	X31	Y31	Z31	X32	Y32	Z32	X33	Y33	Z33	

3938	26.24666666666667	2286.798427585334	921.7623687832416	949.7163790305237	1709.784972973808	454.2486658435342	1073.307269896414	1715.759804153585	428.7024836989494	1024.127153859938	1756.32914767078	441.0918253044909	1063.09867172533	2240.725080930132	997.1857734370059	915.0075873237383	1720.732278690132	245.6820173918883	1073.135305540961	1692.043615801927	288.4077255579112	981.5978731450164	2134.154067374488	971.3824154785825	1017.80434904121	1825.569220517756	402.5682889425924	976.370204197506	1823.196809980803	439.374801822563	1012.026139748399	1897.215797247055	428.9832192212196	949.5721739650403	1898.469777733174	467.6188006903216	985.8854439128389	2153.666029107965	576.2202277324986	887.4739354214378	2095.445613547935	576.2528920522852	931.9778647833144	2151.191669751493	686.6337864466044	889.8265752978253	2100.518865985726	686.7145986705863	936.8223379350308	2284.354132234302	939.5164480174254	1174.388658639096	2411.606124403922	92.57047205385216	1110.100797582362	2245.518249532791	22.62933063575783	1103.12808189059	2272.683192655007	36.86115681006955	1141.699716239189	2253.688261260082	69.82702480842234	1103.946115144227	2230.496947777147	984.7291667264464	1206.331210787271	2450.034624037448	50.96738637064126	1063.721153085368	2427.735902481377	41.50211772196548	1168.246118204879	2133.86948095576	975.0375264247983	1106.861158813225	2308.55670427055	164.7518250472162	1159.893476588177	2265.545322836378	168.2087586494148	1126.744238919219	2300.634697632704	244.0097284265069	1175.27653735716	2259.36248550107	246.6790000121832	1140.400181327491	2314.472817709972	568.7669623256159	1203.70943432548	2252.706701453696	544.0413946878205	1173.067638618866	2265.437020952704	666.7706141918724	1219.619988868187	2206.56586224612	642.6740766466178	1190.316614657263	
3939	26.25333333333333	2286.259312433093	916.81400035159	950.6605961090046	1721.051148736472	455.8816905701203	1070.188564121468	1727.447151541411	429.3391801866336	1021.605227956357	1767.565797743981	442.3617532249538	1060.791185660876	2240.231263806816	990.7588976057843	914.8270386730685	1731.365625256274	247.343558251804	1073.899580087875	1703.836235568152	288.4156279294364	981.3718425197283	2132.640632479024	965.9067141268748	1016.88380436301	1837.823144320299	401.1611777313627	975.3438448713273	1835.896539589077	438.7853667129669	1010.119682116106	1910.063520586757	425.7917900511069	948.407863140808	1911.839749546428	465.1336353590279	983.9087018842679	2162.942103763609	569.3951651603244	887.7887473835791	2103.920309843484	567.7152239437542	931.080804879312	2157.305193555259	679.6666616788248	890.0547244543799	2105.782676159287	678.282354695351	935.9946287149039	2282.150657869067	936.7136862827158	1175.710599473453	2391.578584046627	89.03353433760164	1109.5200204004	2222.369694775678	24.19476606447268	1103.199385623636	2250.044646564304	37.85778872319517	1141.641149097791	2232.091450615494	71.40844828243918	1103.657686805281	2227.715175768145	979.9690093660336	1207.216509975574	2428.787432616508	46.40097344275701	1063.436720887813	2406.141438922654	38.460402329218	1168.39404058348	2131.347848553865	970.7557807081512	1105.68645624537	2293.903106590781	163.9166995744491	1160.061126976428	2250.600681974358	169.727533777606	1127.562519438246	2290.143109028084	243.4661615407937	1175.919850323569	2248.494516110299	248.3944932092905	1141.66579388921	2313.315364523199	566.6160629321039	1205.496444259948	2251.846555066051	541.6234773780908	1174.433702911542	2264.014170759743	664.3995543464218	1221.051889498797	2205.146800881617	640.0317167688717	1191.706049830726	
3940	26.26	2285.439033633918	912.213024999406	951.4960833640952	1732.318724246747	456.1589555815013	1066.265497347045	1739.602081235364	428.6172716307958	1018.391771373229	1778.949254959152	442.6567037054181	1057.856680416552	2239.243251594286	984.720531026147	914.554408754053	1743.469148995787	247.930333231924	1074.565197841622	1717.290097526736	286.8761777834431	980.8367654483515	2130.979143158682	960.8866557777367	1015.84560274836	1850.905464780823	399.1252223142516	974.1472031546976	1849.162925438829	437.5723844023102	1007.972067126593	1923.67798225079	422.2780492669405	947.2667204259166	1925.713716057421	462.3414673563825	981.9099646488354	2172.730694418552	563.2463411540477	888.4985560647617	2112.980469905337	559.7555055177387	930.5557953170926	2163.698995571177	673.2728373049544	890.5188965044536	2111.380743129086	670.3228431453374	935.3556122468046	2279.904608696664	934.3666760258124	1176.823964647034	2370.678024614373	86.6853245998571	1109.089632343119	2199.347183845356	25.59520383041508	1103.389898817863	2227.349381335211	38.87816395374054	1141.732128184188	2210.124457024356	72.79672564941033	1103.604879041297	2224.659377390732	975.7301911218059	1207.957094238366	2406.93980636681	43.54909876727812	1063.178719035215	2384.160479242667	36.77967606702122	1168.573307852393	2128.84617266917	966.9291370636096	1104.368089976083	2278.39007608086	163.5024122768893	1160.443905361683	2234.904644666769	171.5639061298913	1128.565270068144	2278.642806589842	243.1456583565555	1176.721192311301	2236.73457321325	250.2359624670701	1143.065028460951	2311.171012055337	564.4406579516728	1207.340305017798	2249.847923355223	539.3891590729701	1175.963189804876	2261.981436327324	662.2023392329727	1222.520079332402	2203.001413439431	637.7696079689633	1193.224213853724	
3941	26.26666666666667	2284.39122804249	908.0887961133375	952.2136880460862	1743.500447218519	455.033767284596	1061.671046685677	1752.148045638406	426.562243301404	1014.594239173691	1790.390120342325	441.9509032279208	1054.407472341569	2237.708728845961	979.2953763799227	914.2108415006842	1756.969447697259	247.3981684597027	1075.068522199751	1732.351096948304	283.8632369844185	979.9682947628025	2129.249929270779	956.462896150078	1014.748433612106	1864.722740853672	396.5500018263496	972.8403725825472	1862.887110060061	435.7888329728889	1005.69275298664	1937.964295029481	418.5927107739266	946.2260841440265	1939.978462944828	459.3596153733748	980.0129671304089	2183.011686262388	557.944641754128	889.6035257088221	2122.642417825301	552.5513989377165	930.4560586368416	2170.360119955876	667.6051885545827	891.2171756808444	2117.327412657596	662.9916211868281	934.9340277147452	2277.70766740491	932.4861227895035	1177.734564661678	2348.992379972469	85.33841847197969	1108.855740347846	2176.440801203783	26.72550590265689	1103.68670582469	2204.604816212752	39.79225653448775	1141.968279354209	2187.82266497745	73.89986172441601	1103.779805463745	2221.421498277738	972.1355299390183	1208.541957766872	2384.597486591246	42.14682168272139	1062.994335157181	2361.84133014312	36.17533312970413	1168.804235236347	2126.471517005789	963.6528531980578	1102.979756111121	2261.901716262042	163.3332603043536	1161.020733892502	2218.351923667683	173.4951147488672	1129.698143994721	2265.937599218917	242.8900171375402	1177.644905791333	2223.896033781376	252.0002843678949	1144.535423697608	2307.812045364879	562.1880450653995	1209.160765667165	2246.445281863712	537.3375816556565	1177.620700053032	2259.186024768028	660.1689631953097	1223.958292018649	2199.962841160172	635.9256717802422	1194.825562220691	
